<svg width="400" height="120" viewBox="0 0 400 120" fill="none" xmlns="http://www.w3.org/2000/svg">
<g clip-path="url(#clip0_1_6)">
<rect width="400" height="120" fill="black"/>
<path d="M16.5391 63H7.47656C7.26823 63 7.16406 62.8698 7.16406 62.6094L7.32031 7.64844C7.32031 7.4401 7.42448 7.33594 7.63281 7.33594H23.8047C26.6953 7.33594 29.3516 8.03906 31.7734 9.44531C34.1953 10.8516 36.1224 12.7396 37.5547 15.1094C39.013 17.4792 39.7422 20.1615 39.7422 23.1562C39.7422 25.1094 39.4427 26.8802 38.8438 28.4688C38.2448 30.0573 37.5417 31.3984 36.7344 32.4922C35.9531 33.5859 35.237 34.3932 34.5859 34.9141C37.4766 38.1172 38.9219 41.8802 38.9219 46.2031L39 62.6094C39 62.8698 38.8698 63 38.6094 63H29.5469C29.3385 63 29.2344 62.9219 29.2344 62.7656V46.2031C29.2344 44.276 28.5573 42.6094 27.2031 41.2031C25.849 39.7969 24.1823 39.0938 22.2031 39.0938H16.9297L16.8516 62.6094C16.8516 62.8698 16.7474 63 16.5391 63ZM23.8047 16.9062H16.9297V29.4844H23.8047C25.4453 29.4844 26.9036 28.8724 28.1797 27.6484C29.4818 26.4245 30.1328 24.9271 30.1328 23.1562C30.1328 21.4635 29.5078 20.0052 28.2578 18.7812C27.0078 17.5312 25.5234 16.9062 23.8047 16.9062ZM58.9219 63.7812C56.0833 63.7812 53.4661 63.0521 51.0703 61.5938C48.7005 60.1354 46.7865 58.1953 45.3281 55.7734C43.8958 53.3255 43.1797 50.6432 43.1797 47.7266L43.2578 22.375C43.2578 19.4062 43.974 16.737 45.4062 14.3672C46.8125 11.9714 48.7135 10.0573 51.1094 8.625C53.5052 7.16667 56.1094 6.4375 58.9219 6.4375C61.8385 6.4375 64.4557 7.15365 66.7734 8.58594C69.1172 10.0182 70.9922 11.9453 72.3984 14.3672C73.8307 16.763 74.5469 19.4323 74.5469 22.375L74.625 47.7266C74.625 50.6432 73.9219 53.3125 72.5156 55.7344C71.0833 58.1823 69.1823 60.1354 66.8125 61.5938C64.4427 63.0521 61.8125 63.7812 58.9219 63.7812ZM58.9219 54.1328C60.5365 54.1328 61.9427 53.4818 63.1406 52.1797C64.3385 50.8516 64.9375 49.3672 64.9375 47.7266L64.8594 22.375C64.8594 20.6042 64.2995 19.1068 63.1797 17.8828C62.0599 16.6589 60.6406 16.0469 58.9219 16.0469C57.2812 16.0469 55.875 16.6458 54.7031 17.8438C53.5312 19.0417 52.9453 20.5521 52.9453 22.375V47.7266C52.9453 49.4714 53.5312 50.9818 54.7031 52.2578C55.875 53.5078 57.2812 54.1328 58.9219 54.1328ZM95.4062 63.7812C92.5156 63.7812 89.8724 63.0521 87.4766 61.5938C85.1068 60.1354 83.2188 58.1823 81.8125 55.7344C80.4323 53.2604 79.7422 50.513 79.7422 47.4922L79.8203 22.5312C79.8203 19.5625 80.4974 16.8802 81.8516 14.4844C83.2057 12.0625 85.0677 10.1224 87.4375 8.66406C89.8333 7.17969 92.4896 6.4375 95.4062 6.4375C98.375 6.4375 101.018 7.15365 103.336 8.58594C105.68 10.0182 107.542 11.9583 108.922 14.4062C110.328 16.8281 111.031 19.5365 111.031 22.5312V26.2031C111.031 26.4115 110.927 26.5156 110.719 26.5156H101.734C101.526 26.5156 101.422 26.4115 101.422 26.2031V22.5312C101.422 20.7604 100.849 19.237 99.7031 17.9609C98.5573 16.6849 97.125 16.0469 95.4062 16.0469C93.5052 16.0469 92.0469 16.6979 91.0312 18C90.0156 19.3021 89.5078 20.8125 89.5078 22.5312V47.4922C89.5078 49.4453 90.0807 51.0469 91.2266 52.2969C92.3724 53.5208 93.7656 54.1328 95.4062 54.1328C97.125 54.1328 98.5573 53.4557 99.7031 52.1016C100.849 50.7214 101.422 49.1849 101.422 47.4922V43.7812C101.422 43.5729 101.526 43.4688 101.734 43.4688H110.797C111.005 43.4688 111.109 43.5729 111.109 43.7812V47.4922C111.109 50.487 110.406 53.2214 109 55.6953C107.568 58.1432 105.68 60.1094 103.336 61.5938C100.992 63.0521 98.349 63.7812 95.4062 63.7812ZM126.305 63H117.242C117.034 63 116.93 62.8698 116.93 62.6094L117.086 7.72656C117.086 7.46615 117.19 7.33594 117.398 7.33594H126.383C126.591 7.33594 126.695 7.46615 126.695 7.72656V26.6719L139.234 7.64844C139.443 7.4401 139.638 7.33594 139.82 7.33594H149C149.234 7.33594 149.286 7.4401 149.156 7.64844L135.328 29.7188L150.836 62.6875C150.966 62.8958 150.836 63 150.445 63H140.68C140.419 63 140.263 62.8958 140.211 62.6875L129.391 39.1719L126.617 43.5469V62.6094C126.617 62.8698 126.513 63 126.305 63Z" fill="white"/>
<path d="M16.3867 116.391C14.9414 116.391 13.6198 116.026 12.4219 115.297C11.237 114.568 10.293 113.591 9.58984 112.367C8.89974 111.13 8.55469 109.757 8.55469 108.246L8.59375 95.7656C8.59375 94.2812 8.93229 92.9401 9.60938 91.7422C10.2865 90.5312 11.2174 89.5612 12.4023 88.832C13.6003 88.0898 14.9284 87.7188 16.3867 87.7188C17.8711 87.7188 19.1927 88.0768 20.3516 88.793C21.5234 89.5091 22.4544 90.4792 23.1445 91.7031C23.8477 92.9141 24.1992 94.2682 24.1992 95.7656V97.6016C24.1992 97.7057 24.1471 97.7578 24.043 97.7578H19.5508C19.4466 97.7578 19.3945 97.7057 19.3945 97.6016V95.7656C19.3945 94.8802 19.1081 94.1185 18.5352 93.4805C17.9622 92.8424 17.2461 92.5234 16.3867 92.5234C15.4362 92.5234 14.707 92.849 14.1992 93.5C13.6914 94.151 13.4375 94.9062 13.4375 95.7656V108.246C13.4375 109.223 13.724 110.023 14.2969 110.648C14.8698 111.26 15.5664 111.566 16.3867 111.566C17.2461 111.566 17.9622 111.228 18.5352 110.551C19.1081 109.861 19.3945 109.092 19.3945 108.246V106.391C19.3945 106.286 19.4466 106.234 19.5508 106.234H24.082C24.1862 106.234 24.2383 106.286 24.2383 106.391V108.246C24.2383 109.743 23.8867 111.111 23.1836 112.348C22.4674 113.572 21.5234 114.555 20.3516 115.297C19.1797 116.026 17.8581 116.391 16.3867 116.391ZM31.8359 116H27.3047C27.2005 116 27.1484 115.935 27.1484 115.805L27.2266 88.3242C27.2266 88.2201 27.2786 88.168 27.3828 88.168H35.4688C36.9141 88.168 38.2422 88.5195 39.4531 89.2227C40.6641 89.9258 41.6276 90.8698 42.3438 92.0547C43.0729 93.2396 43.4375 94.5807 43.4375 96.0781C43.4375 97.0547 43.2878 97.9401 42.9883 98.7344C42.6888 99.5286 42.3372 100.199 41.9336 100.746C41.543 101.293 41.1849 101.697 40.8594 101.957C42.3047 103.559 43.0273 105.44 43.0273 107.602L43.0664 115.805C43.0664 115.935 43.0013 116 42.8711 116H38.3398C38.2357 116 38.1836 115.961 38.1836 115.883V107.602C38.1836 106.638 37.8451 105.805 37.168 105.102C36.4909 104.398 35.6576 104.047 34.668 104.047H32.0312L31.9922 115.805C31.9922 115.935 31.9401 116 31.8359 116ZM35.4688 92.9531H32.0312V99.2422H35.4688C36.2891 99.2422 37.0182 98.9362 37.6562 98.3242C38.3073 97.7122 38.6328 96.9635 38.6328 96.0781C38.6328 95.2318 38.3203 94.5026 37.6953 93.8906C37.0703 93.2656 36.3281 92.9531 35.4688 92.9531ZM59.5312 116H46.6016C46.4974 116 46.4453 115.935 46.4453 115.805L46.4844 88.3242C46.4844 88.2201 46.5365 88.168 46.6406 88.168H59.4922C59.5964 88.168 59.6484 88.2331 59.6484 88.3633V92.8359C59.6484 92.9401 59.5964 92.9922 59.4922 92.9922H51.2891V99.2422H59.4922C59.5964 99.2422 59.6484 99.2943 59.6484 99.3984L59.6875 103.93C59.6875 104.034 59.6354 104.086 59.5312 104.086H51.2891V111.078H59.5312C59.6354 111.078 59.6875 111.143 59.6875 111.273V115.844C59.6875 115.948 59.6354 116 59.5312 116ZM61.8945 115.805L66.8555 88.3242C66.8815 88.2201 66.9466 88.168 67.0508 88.168H72.8516C72.9557 88.168 73.0208 88.2201 73.0469 88.3242L77.8125 115.805C77.8255 115.935 77.7734 116 77.6562 116H73.2227C73.0924 116 73.0208 115.935 73.0078 115.805L72.5781 112.875H67.1289L66.6992 115.805C66.6862 115.935 66.6211 116 66.5039 116H62.0508C61.9466 116 61.8945 115.935 61.8945 115.805ZM70.1367 97.3672L69.9023 95.8828L69.7266 97.3672L67.9297 108.598H71.7773L70.1367 97.3672ZM86.4258 116H81.9141C81.7969 116 81.7383 115.935 81.7383 115.805V92.9922H76.543C76.4128 92.9922 76.3477 92.9271 76.3477 92.7969L76.3867 88.3242C76.3867 88.2201 76.4388 88.168 76.543 88.168H91.7383C91.8815 88.168 91.9531 88.2201 91.9531 88.3242V92.7969C91.9531 92.9271 91.901 92.9922 91.7969 92.9922H86.543L86.582 115.805C86.582 115.935 86.5299 116 86.4258 116ZM98.6328 116H94.1016C93.9714 116 93.9062 115.935 93.9062 115.805L93.9453 88.3242C93.9453 88.2201 93.9974 88.168 94.1016 88.168H98.5938C98.6979 88.168 98.75 88.2201 98.75 88.3242L98.7891 115.805C98.7891 115.935 98.737 116 98.6328 116ZM106.992 116H102.5C102.37 116 102.305 115.935 102.305 115.805L102.383 88.3242C102.383 88.2201 102.435 88.168 102.539 88.168H115.352C115.482 88.168 115.547 88.2201 115.547 88.3242V92.8359C115.547 92.9401 115.495 92.9922 115.391 92.9922H107.188V99.2031H115.391C115.495 99.2031 115.547 99.2682 115.547 99.3984L115.586 103.93C115.586 104.034 115.521 104.086 115.391 104.086H107.188V115.805C107.188 115.935 107.122 116 106.992 116Z" fill="white"/>
<path d="M267.656 117.707L275.098 76.4863C275.137 76.3301 275.234 76.252 275.391 76.252H284.092C284.248 76.252 284.346 76.3301 284.385 76.4863L291.533 117.707C291.553 117.902 291.475 118 291.299 118H284.648C284.453 118 284.346 117.902 284.326 117.707L283.682 113.312H275.508L274.863 117.707C274.844 117.902 274.746 118 274.57 118H267.891C267.734 118 267.656 117.902 267.656 117.707ZM280.02 90.0508L279.668 87.8242L279.404 90.0508L276.709 106.896H282.48L280.02 90.0508ZM302.314 118H295.518C295.361 118 295.283 117.922 295.283 117.766V110.969C295.283 110.812 295.361 110.734 295.518 110.734H302.314C302.471 110.734 302.549 110.812 302.549 110.969V117.766C302.549 117.922 302.471 118 302.314 118ZM327.1 118H307.705C307.549 118 307.471 117.902 307.471 117.707L307.529 76.5449C307.529 76.3496 307.627 76.252 307.822 76.252H314.502C314.697 76.252 314.795 76.3496 314.795 76.5449L314.736 110.617H327.1C327.295 110.617 327.393 110.715 327.393 110.91V117.707C327.393 117.902 327.295 118 327.1 118ZM338.408 118H331.611C331.416 118 331.318 117.902 331.318 117.707L331.377 76.4863C331.377 76.3301 331.455 76.252 331.611 76.252H338.35C338.506 76.252 338.584 76.3301 338.584 76.4863L338.643 117.707C338.643 117.902 338.564 118 338.408 118ZM357.92 118H350.654C350.479 118 350.381 117.902 350.361 117.707L342.07 76.4863C342.031 76.3301 342.109 76.252 342.305 76.252H349.102C349.258 76.252 349.355 76.3301 349.395 76.4863L354.316 103.967L359.121 76.4863C359.16 76.3301 359.258 76.252 359.414 76.252H366.123C366.338 76.252 366.416 76.3301 366.357 76.4863L358.213 117.707C358.193 117.902 358.096 118 357.92 118ZM389.502 118H370.107C369.951 118 369.873 117.902 369.873 117.707L369.932 76.4863C369.932 76.3301 370.01 76.252 370.166 76.252H389.443C389.6 76.252 389.678 76.3496 389.678 76.5449V83.2539C389.678 83.4102 389.6 83.4883 389.443 83.4883H377.139V92.8633H389.443C389.6 92.8633 389.678 92.9414 389.678 93.0977L389.736 99.8945C389.736 100.051 389.658 100.129 389.502 100.129H377.139V110.617H389.502C389.658 110.617 389.736 110.715 389.736 110.91V117.766C389.736 117.922 389.658 118 389.502 118Z" fill="white"/>
<path d="M244.001 67H234.304C234.226 67 234.187 66.9512 234.187 66.8535L234.216 46.2432C234.216 46.165 234.255 46.126 234.333 46.126H243.972C244.05 46.126 244.089 46.1748 244.089 46.2725V49.627C244.089 49.7051 244.05 49.7441 243.972 49.7441H237.819V54.4316H243.972C244.05 54.4316 244.089 54.4707 244.089 54.5488L244.118 57.9473C244.118 58.0254 244.079 58.0645 244.001 58.0645H237.819V63.3086H244.001C244.079 63.3086 244.118 63.3574 244.118 63.4551V66.8828C244.118 66.9609 244.079 67 244.001 67ZM249.23 67H245.861C245.793 67 245.764 66.9512 245.773 66.8535L249.201 56.1455L245.832 46.2432C245.812 46.165 245.842 46.126 245.92 46.126H249.289C249.387 46.126 249.445 46.165 249.465 46.2432L251.472 53.377L253.508 46.2432C253.527 46.165 253.591 46.126 253.698 46.126H257.023C257.102 46.126 257.131 46.165 257.111 46.2432L253.757 56.1162L257.141 66.8535C257.18 66.9512 257.15 67 257.053 67H253.698C253.61 67 253.547 66.9512 253.508 66.8535L251.472 59.1045L249.406 66.8535C249.396 66.9512 249.338 67 249.23 67ZM262.429 67H259.06C258.962 67 258.913 66.9512 258.913 66.8535L258.972 46.2432C258.972 46.165 259.011 46.126 259.089 46.126H264.86C266.696 46.126 268.146 46.6875 269.211 47.8105C270.285 48.9238 270.822 50.4424 270.822 52.3662C270.822 53.7725 270.544 54.998 269.987 56.043C269.421 57.0781 268.688 57.8789 267.79 58.4453C266.892 59.0117 265.915 59.2949 264.86 59.2949H262.575V66.8535C262.575 66.9512 262.526 67 262.429 67ZM264.86 49.6855L262.575 49.7148V55.6621H264.86C265.495 55.6621 266.047 55.3594 266.516 54.7539C266.984 54.1387 267.219 53.3428 267.219 52.3662C267.219 51.585 267.009 50.9453 266.589 50.4473C266.169 49.9395 265.593 49.6855 264.86 49.6855ZM282.438 67H272.741C272.663 67 272.624 66.9512 272.624 66.8535L272.653 46.2432C272.653 46.165 272.692 46.126 272.771 46.126H282.409C282.487 46.126 282.526 46.1748 282.526 46.2725V49.627C282.526 49.7051 282.487 49.7441 282.409 49.7441H276.257V54.4316H282.409C282.487 54.4316 282.526 54.4707 282.526 54.5488L282.556 57.9473C282.556 58.0254 282.517 58.0645 282.438 58.0645H276.257V63.3086H282.438C282.517 63.3086 282.556 63.3574 282.556 63.4551V66.8828C282.556 66.9609 282.517 67 282.438 67ZM288.737 67H285.339C285.261 67 285.222 66.9512 285.222 66.8535L285.28 46.2432C285.28 46.165 285.319 46.126 285.397 46.126H291.462C292.546 46.126 293.542 46.3896 294.45 46.917C295.358 47.4443 296.081 48.1523 296.618 49.041C297.165 49.9297 297.438 50.9355 297.438 52.0586C297.438 52.791 297.326 53.4551 297.102 54.0508C296.877 54.6465 296.613 55.1494 296.311 55.5596C296.018 55.9697 295.749 56.2725 295.505 56.4678C296.589 57.6689 297.131 59.0801 297.131 60.7012L297.16 66.8535C297.16 66.9512 297.111 67 297.014 67H293.615C293.537 67 293.498 66.9707 293.498 66.9121V60.7012C293.498 59.9785 293.244 59.3535 292.736 58.8262C292.229 58.2988 291.604 58.0352 290.861 58.0352H288.884L288.854 66.8535C288.854 66.9512 288.815 67 288.737 67ZM291.462 49.7148H288.884V54.4316H291.462C292.077 54.4316 292.624 54.2021 293.103 53.7432C293.591 53.2842 293.835 52.7227 293.835 52.0586C293.835 51.4238 293.601 50.877 293.132 50.418C292.663 49.9492 292.106 49.7148 291.462 49.7148ZM303.239 67H299.841C299.743 67 299.694 66.9512 299.694 66.8535L299.724 46.2432C299.724 46.165 299.763 46.126 299.841 46.126H303.21C303.288 46.126 303.327 46.165 303.327 46.2432L303.356 66.8535C303.356 66.9512 303.317 67 303.239 67ZM309.509 67H306.11C306.032 67 305.993 66.9512 305.993 66.8535L306.052 46.2432C306.052 46.165 306.091 46.126 306.169 46.126H309.831C309.909 46.126 309.978 46.165 310.036 46.2432L312.775 50.1982L315.5 46.2432C315.559 46.165 315.632 46.126 315.72 46.126H319.396C319.484 46.126 319.528 46.165 319.528 46.2432L319.587 66.8535C319.587 66.9512 319.548 67 319.47 67H316.071C315.993 67 315.954 66.9512 315.954 66.8535L315.925 51.5459L312.775 56.1162L309.655 51.5459L309.626 66.8535C309.626 66.9512 309.587 67 309.509 67ZM331.921 67H322.224C322.146 67 322.106 66.9512 322.106 66.8535L322.136 46.2432C322.136 46.165 322.175 46.126 322.253 46.126H331.892C331.97 46.126 332.009 46.1748 332.009 46.2725V49.627C332.009 49.7051 331.97 49.7441 331.892 49.7441H325.739V54.4316H331.892C331.97 54.4316 332.009 54.4707 332.009 54.5488L332.038 57.9473C332.038 58.0254 331.999 58.0645 331.921 58.0645H325.739V63.3086H331.921C331.999 63.3086 332.038 63.3574 332.038 63.4551V66.8828C332.038 66.9609 331.999 67 331.921 67ZM337.971 67H334.968C334.812 67 334.733 66.9316 334.733 66.7949L334.704 46.3604C334.704 46.2041 334.782 46.126 334.938 46.126H337.648L342.717 57.9473L342.57 46.3604C342.57 46.2041 342.658 46.126 342.834 46.126H345.808C345.925 46.126 345.983 46.2041 345.983 46.3604L346.013 66.8242C346.013 66.9414 345.964 67 345.866 67H343.229L338.029 55.9551L338.249 66.7656C338.249 66.9219 338.156 67 337.971 67ZM355.021 67H351.638C351.55 67 351.506 66.9512 351.506 66.8535V49.7441H347.609C347.512 49.7441 347.463 49.6953 347.463 49.5977L347.492 46.2432C347.492 46.165 347.531 46.126 347.609 46.126H359.006C359.113 46.126 359.167 46.165 359.167 46.2432V49.5977C359.167 49.6953 359.128 49.7441 359.05 49.7441H355.109L355.139 66.8535C355.139 66.9512 355.1 67 355.021 67ZM357.805 66.8535L361.525 46.2432C361.545 46.165 361.594 46.126 361.672 46.126H366.022C366.101 46.126 366.149 46.165 366.169 46.2432L369.743 66.8535C369.753 66.9512 369.714 67 369.626 67H366.301C366.203 67 366.149 66.9512 366.14 66.8535L365.817 64.6562H361.73L361.408 66.8535C361.398 66.9512 361.35 67 361.262 67H357.922C357.844 67 357.805 66.9512 357.805 66.8535ZM363.986 53.0254L363.811 51.9121L363.679 53.0254L362.331 61.4482H365.217L363.986 53.0254ZM381.433 67H371.735C371.657 67 371.618 66.9512 371.618 66.8535L371.647 46.2725C371.647 46.1748 371.696 46.126 371.794 46.126H375.134C375.231 46.126 375.28 46.1748 375.28 46.2725L375.251 63.3086H381.433C381.53 63.3086 381.579 63.3574 381.579 63.4551V66.8535C381.579 66.9512 381.53 67 381.433 67Z" fill="white"/>
<path d="M171.886 38H166.222C166.059 38 165.978 37.9186 165.978 37.7559L166.026 3.40527C166.026 3.27507 166.091 3.20996 166.222 3.20996H171.837C171.967 3.20996 172.032 3.27507 172.032 3.40527L172.081 37.7559C172.081 37.9186 172.016 38 171.886 38ZM181.92 38H176.915C176.655 38 176.524 37.8861 176.524 37.6582L176.476 3.60059C176.476 3.34017 176.606 3.20996 176.866 3.20996H181.383L189.83 22.9121L189.586 3.60059C189.586 3.34017 189.732 3.20996 190.025 3.20996H194.981C195.177 3.20996 195.274 3.34017 195.274 3.60059L195.323 37.707C195.323 37.9023 195.242 38 195.079 38H190.685L182.018 19.5918L182.384 37.6094C182.384 37.8698 182.229 38 181.92 38ZM208.873 37.9512L199.913 38C199.75 38 199.669 37.9186 199.669 37.7559L199.767 3.40527C199.767 3.27507 199.832 3.20996 199.962 3.20996L209.312 3.16113C211.168 3.1123 212.844 3.53548 214.342 4.43066C215.855 5.32585 217.06 6.53841 217.955 8.06836C218.867 9.58203 219.322 11.2585 219.322 13.0977V27.4531C219.322 29.3737 218.858 31.1315 217.931 32.7266C216.987 34.3053 215.733 35.5667 214.171 36.5107C212.608 37.4385 210.842 37.9186 208.873 37.9512ZM209.312 9.14258L205.821 9.19141L205.772 31.8477H208.873C210.11 31.8477 211.152 31.4163 211.998 30.5537C212.844 29.6911 213.268 28.6576 213.268 27.4531V13.0488C213.268 11.9909 212.877 11.0713 212.096 10.29C211.314 9.49251 210.387 9.11003 209.312 9.14258ZM239.61 38H223.448C223.318 38 223.253 37.9186 223.253 37.7559L223.302 3.40527C223.302 3.27507 223.367 3.20996 223.497 3.20996H239.562C239.692 3.20996 239.757 3.29134 239.757 3.4541V9.04492C239.757 9.17513 239.692 9.24023 239.562 9.24023H229.308V17.0527H239.562C239.692 17.0527 239.757 17.1178 239.757 17.248L239.806 22.9121C239.806 23.0423 239.741 23.1074 239.61 23.1074H229.308V31.8477H239.61C239.741 31.8477 239.806 31.929 239.806 32.0918V37.8047C239.806 37.9349 239.741 38 239.61 38ZM250.108 38H244.493C244.33 38 244.249 37.9186 244.249 37.7559L244.347 3.40527C244.347 3.27507 244.412 3.20996 244.542 3.20996H254.161C257.221 3.20996 259.638 4.14583 261.412 6.01758C263.202 7.87305 264.098 10.404 264.098 13.6104C264.098 15.9541 263.634 17.9967 262.706 19.7383C261.762 21.4635 260.541 22.7982 259.044 23.7422C257.547 24.6862 255.919 25.1582 254.161 25.1582H250.353V37.7559C250.353 37.9186 250.271 38 250.108 38ZM254.161 9.14258L250.353 9.19141V19.1035H254.161C255.219 19.1035 256.139 18.599 256.92 17.5898C257.701 16.5645 258.092 15.238 258.092 13.6104C258.092 12.3083 257.742 11.2422 257.042 10.4121C256.342 9.56576 255.382 9.14258 254.161 9.14258ZM283.458 38H267.296C267.166 38 267.101 37.9186 267.101 37.7559L267.149 3.40527C267.149 3.27507 267.215 3.20996 267.345 3.20996H283.409C283.539 3.20996 283.604 3.29134 283.604 3.4541V9.04492C283.604 9.17513 283.539 9.24023 283.409 9.24023H273.155V17.0527H283.409C283.539 17.0527 283.604 17.1178 283.604 17.248L283.653 22.9121C283.653 23.0423 283.588 23.1074 283.458 23.1074H273.155V31.8477H283.458C283.588 31.8477 283.653 31.929 283.653 32.0918V37.8047C283.653 37.9349 283.588 38 283.458 38ZM293.541 38H288.536C288.276 38 288.146 37.8861 288.146 37.6582L288.097 3.60059C288.097 3.34017 288.227 3.20996 288.487 3.20996H293.004L301.451 22.9121L301.207 3.60059C301.207 3.34017 301.354 3.20996 301.646 3.20996H306.603C306.798 3.20996 306.896 3.34017 306.896 3.60059L306.944 37.707C306.944 37.9023 306.863 38 306.7 38H302.306L293.639 19.5918L294.005 37.6094C294.005 37.8698 293.85 38 293.541 38ZM320.494 37.9512L311.534 38C311.371 38 311.29 37.9186 311.29 37.7559L311.388 3.40527C311.388 3.27507 311.453 3.20996 311.583 3.20996L320.934 3.16113C322.789 3.1123 324.465 3.53548 325.963 4.43066C327.477 5.32585 328.681 6.53841 329.576 8.06836C330.488 9.58203 330.943 11.2585 330.943 13.0977V27.4531C330.943 29.3737 330.479 31.1315 329.552 32.7266C328.608 34.3053 327.354 35.5667 325.792 36.5107C324.229 37.4385 322.464 37.9186 320.494 37.9512ZM320.934 9.14258L317.442 9.19141L317.394 31.8477H320.494C321.731 31.8477 322.773 31.4163 323.619 30.5537C324.465 29.6911 324.889 28.6576 324.889 27.4531V13.0488C324.889 11.9909 324.498 11.0713 323.717 10.29C322.936 9.49251 322.008 9.11003 320.934 9.14258ZM332.164 37.7559L338.365 3.40527C338.398 3.27507 338.479 3.20996 338.609 3.20996H345.86C345.991 3.20996 346.072 3.27507 346.104 3.40527L352.062 37.7559C352.078 37.9186 352.013 38 351.866 38H346.324C346.161 38 346.072 37.9186 346.056 37.7559L345.519 34.0938H338.707L338.17 37.7559C338.154 37.9186 338.072 38 337.926 38H332.359C332.229 38 332.164 37.9186 332.164 37.7559ZM342.467 14.709L342.174 12.8535L341.954 14.709L339.708 28.7471H344.518L342.467 14.709ZM360.631 38H355.626C355.366 38 355.235 37.8861 355.235 37.6582L355.187 3.60059C355.187 3.34017 355.317 3.20996 355.577 3.20996H360.094L368.541 22.9121L368.297 3.60059C368.297 3.34017 368.443 3.20996 368.736 3.20996H373.692C373.888 3.20996 373.985 3.34017 373.985 3.60059L374.034 37.707C374.034 37.9023 373.953 38 373.79 38H369.396L360.729 19.5918L361.095 37.6094C361.095 37.8698 360.94 38 360.631 38ZM389.049 38H383.409C383.263 38 383.189 37.9186 383.189 37.7559V9.24023H376.695C376.533 9.24023 376.451 9.15885 376.451 8.99609L376.5 3.40527C376.5 3.27507 376.565 3.20996 376.695 3.20996H395.689C395.868 3.20996 395.958 3.27507 395.958 3.40527V8.99609C395.958 9.15885 395.893 9.24023 395.763 9.24023H389.195L389.244 37.7559C389.244 37.9186 389.179 38 389.049 38Z" fill="white"/>
<path d="M121.464 93.8291L125.805 69.7837C125.828 69.6925 125.885 69.647 125.976 69.647H131.052C131.143 69.647 131.2 69.6925 131.223 69.7837L135.393 93.8291C135.404 93.943 135.358 94 135.256 94H131.376C131.263 94 131.2 93.943 131.188 93.8291L130.812 91.2656H126.044L125.668 93.8291C125.657 93.943 125.6 94 125.498 94H121.601C121.51 94 121.464 93.943 121.464 93.8291ZM128.676 77.6963L128.471 76.3975L128.317 77.6963L126.745 87.5229H130.112L128.676 77.6963ZM143.305 94.3418C142.075 94.3418 140.935 94.0228 139.887 93.3848C138.839 92.7467 138.002 91.8923 137.375 90.8213C136.76 89.7389 136.452 88.5597 136.452 87.2837L136.521 69.7837C136.521 69.6925 136.566 69.647 136.657 69.647H140.588C140.679 69.647 140.725 69.6925 140.725 69.7837V87.2837C140.725 88.0698 140.975 88.742 141.477 89.3003C141.978 89.8472 142.587 90.1206 143.305 90.1206C144.057 90.1206 144.684 89.8472 145.185 89.3003C145.686 88.742 145.937 88.0698 145.937 87.2837V69.7837C145.937 69.6925 145.983 69.647 146.074 69.647H150.004C150.096 69.647 150.141 69.6925 150.141 69.7837L150.209 87.2837C150.209 88.5711 149.902 89.756 149.287 90.8384C148.66 91.9093 147.828 92.7638 146.792 93.4019C145.755 94.0285 144.593 94.3418 143.305 94.3418ZM159.404 93.9658L153.132 94C153.018 94 152.961 93.943 152.961 93.8291L153.029 69.7837C153.029 69.6925 153.075 69.647 153.166 69.647L159.711 69.6128C161.01 69.5786 162.184 69.8748 163.232 70.5015C164.292 71.1281 165.135 71.9769 165.761 73.0479C166.399 74.1074 166.718 75.2809 166.718 76.5684V86.6172C166.718 87.9616 166.394 89.1921 165.744 90.3086C165.083 91.4137 164.206 92.2967 163.112 92.9575C162.019 93.6069 160.782 93.943 159.404 93.9658ZM159.711 73.7998L157.268 73.834L157.233 89.6934H159.404C160.27 89.6934 160.999 89.3914 161.591 88.7876C162.184 88.1838 162.48 87.4603 162.48 86.6172V76.5342C162.48 75.7936 162.207 75.1499 161.66 74.603C161.113 74.0448 160.463 73.777 159.711 73.7998ZM167.573 93.8291L171.914 69.7837C171.936 69.6925 171.993 69.647 172.084 69.647H177.16C177.251 69.647 177.308 69.6925 177.331 69.7837L181.501 93.8291C181.512 93.943 181.467 94 181.364 94H177.485C177.371 94 177.308 93.943 177.297 93.8291L176.921 91.2656H172.153L171.777 93.8291C171.765 93.943 171.708 94 171.606 94H167.709C167.618 94 167.573 93.943 167.573 93.8291ZM174.785 77.6963L174.58 76.3975L174.426 77.6963L172.854 87.5229H176.22L174.785 77.6963ZM189.414 94.3418C188.149 94.3418 186.993 94.0228 185.944 93.3848C184.908 92.7467 184.082 91.8923 183.466 90.8213C182.862 89.7389 182.561 88.5369 182.561 87.2153L182.595 76.2949C182.595 74.9961 182.891 73.8226 183.483 72.7744C184.076 71.7148 184.89 70.866 185.927 70.228C186.975 69.5786 188.138 69.2539 189.414 69.2539C190.712 69.2539 191.869 69.5672 192.883 70.1938C193.908 70.8205 194.723 71.6693 195.327 72.7402C195.942 73.7998 196.25 74.9847 196.25 76.2949V77.9014C196.25 77.9925 196.204 78.0381 196.113 78.0381H192.182C192.091 78.0381 192.045 77.9925 192.045 77.9014V76.2949C192.045 75.5202 191.795 74.8537 191.293 74.2954C190.792 73.7371 190.166 73.458 189.414 73.458C188.582 73.458 187.944 73.7428 187.5 74.3125C187.055 74.8822 186.833 75.543 186.833 76.2949V87.2153C186.833 88.0698 187.084 88.7705 187.585 89.3174C188.086 89.8529 188.696 90.1206 189.414 90.1206C190.166 90.1206 190.792 89.8244 191.293 89.2319C191.795 88.6281 192.045 87.9559 192.045 87.2153V85.5918C192.045 85.5007 192.091 85.4551 192.182 85.4551H196.147C196.238 85.4551 196.284 85.5007 196.284 85.5918V87.2153C196.284 88.5256 195.976 89.7218 195.361 90.8042C194.734 91.8752 193.908 92.7354 192.883 93.3848C191.857 94.0228 190.701 94.3418 189.414 94.3418ZM202.966 94H199.001C198.887 94 198.83 93.943 198.83 93.8291L198.864 69.7837C198.864 69.6925 198.91 69.647 199.001 69.647H202.932C203.023 69.647 203.068 69.6925 203.068 69.7837L203.103 93.8291C203.103 93.943 203.057 94 202.966 94ZM217.629 94H206.315C206.224 94 206.179 93.943 206.179 93.8291L206.213 69.7837C206.213 69.6925 206.258 69.647 206.35 69.647H217.595C217.686 69.647 217.731 69.7039 217.731 69.8179V73.7314C217.731 73.8226 217.686 73.8682 217.595 73.8682H210.417V79.3369H217.595C217.686 79.3369 217.731 79.3825 217.731 79.4736L217.766 83.4385C217.766 83.5296 217.72 83.5752 217.629 83.5752H210.417V89.6934H217.629C217.72 89.6934 217.766 89.7503 217.766 89.8643V93.8633C217.766 93.9544 217.72 94 217.629 94ZM227.319 94.3418C226.088 94.3418 224.949 94.0228 223.901 93.3848C222.853 92.7467 222.015 91.8923 221.389 90.8213C220.773 89.7389 220.466 88.5597 220.466 87.2837L220.534 69.7837C220.534 69.6925 220.58 69.647 220.671 69.647H224.602C224.693 69.647 224.738 69.6925 224.738 69.7837V87.2837C224.738 88.0698 224.989 88.742 225.49 89.3003C225.992 89.8472 226.601 90.1206 227.319 90.1206C228.071 90.1206 228.697 89.8472 229.199 89.3003C229.7 88.742 229.951 88.0698 229.951 87.2837V69.7837C229.951 69.6925 229.996 69.647 230.087 69.647H234.018C234.109 69.647 234.155 69.6925 234.155 69.7837L234.223 87.2837C234.223 88.5711 233.916 89.756 233.3 90.8384C232.674 91.9093 231.842 92.7638 230.805 93.4019C229.768 94.0285 228.606 94.3418 227.319 94.3418ZM239.829 94H235.898C235.818 94 235.784 93.943 235.795 93.8291L239.794 81.3364L235.864 69.7837C235.841 69.6925 235.875 69.647 235.966 69.647H239.897C240.011 69.647 240.079 69.6925 240.102 69.7837L242.443 78.1064L244.819 69.7837C244.842 69.6925 244.916 69.647 245.041 69.647H248.92C249.012 69.647 249.046 69.6925 249.023 69.7837L245.109 81.3022L249.057 93.8291C249.103 93.943 249.069 94 248.955 94H245.041C244.938 94 244.864 93.943 244.819 93.8291L242.443 84.7886L240.034 93.8291C240.022 93.943 239.954 94 239.829 94Z" fill="white"/>
</g>
<defs>
<clipPath id="clip0_1_6">
<rect width="400" height="120" fill="white"/>
</clipPath>
</defs>
</svg>
